<?xml version="1.0" encoding="UTF-8"?>
<svg width="207px" height="29px" viewBox="0 0 207 29" version="1.1" xmlns="http://www.w3.org/2000/svg" xmlns:xlink="http://www.w3.org/1999/xlink">
    <!-- Generator: Sketch 55.2 (78181) - https://sketchapp.com -->
    <title>akademic_logo</title>
    <desc>Created with Sketch.</desc>
    <g id="Page-1" stroke="none" stroke-width="1" fill="none" fill-rule="evenodd">
        <g id="akademic_logo">
            <g id="Ru">
                <path d="M144.869117,19.6894531 L141.758765,19.6894531 L141.075171,22 L139.379859,22 L142.613257,12.046875 L144.05564,12.046875 L147.227515,22 L145.539039,22 L144.869117,19.6894531 Z M142.175757,18.2880859 L144.458961,18.2880859 L143.331031,14.3847656 L142.175757,18.2880859 Z M151.103492,17.7207031 L150.132789,17.7207031 L150.132789,22 L148.485328,22 L148.485328,12.046875 L150.132789,12.046875 L150.132789,16.4287109 L150.877906,16.4287109 L153.646461,12.046875 L155.540015,12.046875 L152.395484,16.8525391 L155.738257,22 L153.783179,22 L151.103492,17.7207031 Z M161.671851,19.6894531 L158.5615,19.6894531 L157.877906,22 L156.182593,22 L159.415992,12.046875 L160.858375,12.046875 L164.03025,22 L162.341773,22 L161.671851,19.6894531 Z M158.978492,18.2880859 L161.261695,18.2880859 L160.133765,14.3847656 L158.978492,18.2880859 Z M171.918921,24.4472656 L170.476539,24.4472656 L170.476539,22 L166.245093,22 L166.245093,24.4541016 L164.850562,24.4541016 L164.597632,20.6806641 L165.007789,20.6806641 C165.212868,20.5576166 165.394018,20.3878592 165.551246,20.1713867 C165.708473,19.9549143 165.841773,19.6678078 165.951148,19.3100586 C166.060524,18.9523094 166.148251,18.5125352 166.214332,17.9907227 C166.280413,17.4689102 166.327124,16.8457067 166.354468,16.1210938 L166.600562,12.046875 L171.310523,12.046875 L171.310523,20.6806641 L172.124,20.6806641 L171.918921,24.4472656 Z M168.008765,16.1210938 C167.967749,17.2102919 167.874326,18.1251591 167.728492,18.8657227 C167.582658,19.6062863 167.388975,20.2112607 167.147437,20.6806641 L169.669898,20.6806641 L169.669898,13.3730469 L168.165992,13.3730469 L168.008765,16.1210938 Z M179.479468,17.5361328 L175.384742,17.5361328 L175.384742,20.6601562 L180.176734,20.6601562 L180.176734,22 L173.737281,22 L173.737281,12.046875 L180.128882,12.046875 L180.128882,13.4003906 L175.384742,13.4003906 L175.384742,16.2099609 L179.479468,16.2099609 L179.479468,17.5361328 Z M183.991187,12.046875 L185.228492,16.3466797 L186.595679,12.046875 L188.632789,12.046875 L188.632789,22 L187.087867,22 L187.087867,18.5820312 L187.18357,14.2207031 L185.65232,18.9921875 L184.790992,18.9921875 L183.403296,14.3847656 L183.499,18.5820312 L183.499,22 L181.954078,22 L181.954078,12.046875 L183.991187,12.046875 Z M195.154273,12.046875 L196.801734,12.046875 L196.801734,22 L195.154273,22 L195.154273,15.2460938 L192.002906,22 L190.355445,22 L190.355445,12.046875 L192.002906,12.046875 L192.002906,18.8007812 L195.154273,12.046875 Z M201.511695,17.7207031 L200.540992,17.7207031 L200.540992,22 L198.893531,22 L198.893531,12.046875 L200.540992,12.046875 L200.540992,16.4287109 L201.286109,16.4287109 L204.054664,12.046875 L205.948218,12.046875 L202.803687,16.8525391 L206.146461,22 L204.191382,22 L201.511695,17.7207031 Z" id="АКАДЕМИК" fill="#7A7A7A" fill-rule="nonzero"></path>
                <ellipse id="Oval" fill="#62B037" cx="132.585366" cy="20" rx="2.14634146" ry="2"></ellipse>
                <path d="M12.42,22.48 C10.1999889,22.48 8.2000089,22.0150047 6.42,21.085 C4.6399911,20.1549954 3.24500505,18.8550084 2.235,17.185 C1.22499495,15.5149917 0.72,13.6200106 0.72,11.5 C0.72,9.3799894 1.22499495,7.48500835 2.235,5.815 C3.24500505,4.14499165 4.6399911,2.84500465 6.42,1.915 C8.2000089,0.98499535 10.1999889,0.52 12.42,0.52 C14.4600102,0.52 16.279992,0.8799964 17.88,1.6 C19.480008,2.3200036 20.7999948,3.3599932 21.84,4.72 L17.37,8.71 C16.0699935,7.0699918 14.5400088,6.25 12.78,6.25 C11.2999926,6.25 10.1100045,6.72499525 9.21,7.675 C8.3099955,8.62500475 7.86,9.899992 7.86,11.5 C7.86,13.100008 8.3099955,14.3749953 9.21,15.325 C10.1100045,16.2750048 11.2999926,16.75 12.78,16.75 C14.5400088,16.75 16.0699935,15.9300082 17.37,14.29 L21.84,18.28 C20.7999948,19.6400068 19.480008,20.6799964 17.88,21.4 C16.279992,22.1200036 14.4600102,22.48 12.42,22.48 Z M31.77,16.54 L30.48,16.54 L30.48,22 L23.7,22 L23.7,5.59 L30.48,5.59 L30.48,11.35 L31.95,11.35 L35.55,5.59 L42.69,5.59 L37.41,13.45 L43.02,22 L35.04,22 L31.77,16.54 Z M61.83,5.59 L61.83,22 L55.38,22 L55.38,20.44 C54.779997,21.0600031 54.080004,21.5249985 53.28,21.835 C52.479996,22.1450016 51.6300045,22.3 50.73,22.3 C48.6499896,22.3 46.9800063,21.6650064 45.72,20.395 C44.4599937,19.1249937 43.83,17.2100128 43.83,14.65 L43.83,5.59 L50.61,5.59 L50.61,13.48 C50.61,14.6000056 50.7899982,15.3999976 51.15,15.88 C51.5100018,16.3600024 52.0399965,16.6 52.74,16.6 C53.4000033,16.6 53.9499978,16.3350027 54.39,15.805 C54.83,15.2749974 55.05,14.4400057 55.05,13.3 L55.05,5.59 L61.83,5.59 Z M83.13,5.59 L83.13,18.73 C83.13,21.8500156 82.2650087,24.1949922 80.535,25.765 C78.8049914,27.3350079 76.340016,28.12 73.14,28.12 C71.4999918,28.12 69.9700071,27.9450018 68.55,27.595 C67.1299929,27.2449983 65.920005,26.7400033 64.92,26.08 L67.2,21.46 C67.8400032,21.9400024 68.6499951,22.3299985 69.63,22.63 C70.6100049,22.9300015 71.5499955,23.08 72.45,23.08 C73.8100068,23.08 74.7999969,22.79 75.42,22.21 C76.0400031,21.6299971 76.35,20.7800056 76.35,19.66 L76.35,19.36 C75.3299949,20.5200058 73.82001,21.1 71.82,21.1 C70.419993,21.1 69.1150061,20.7750033 67.905,20.125 C66.694994,19.4749968 65.7300036,18.5450061 65.01,17.335 C64.2899964,16.124994 63.93,14.7400078 63.93,13.18 C63.93,11.6199922 64.2899964,10.240006 65.01,9.04 C65.7300036,7.839994 66.694994,6.91500325 67.905,6.265 C69.1150061,5.61499675 70.419993,5.29 71.82,5.29 C74.0600112,5.29 75.679995,6.0099928 76.68,7.45 L76.68,5.59 L83.13,5.59 Z M73.62,15.82 C74.420004,15.82 75.0849974,15.5750025 75.615,15.085 C76.1450027,14.5949976 76.41,13.9600039 76.41,13.18 C76.41,12.3999961 76.1450027,11.7700024 75.615,11.29 C75.0849974,10.8099976 74.420004,10.57 73.62,10.57 C72.8,10.57 72.1250027,10.8099976 71.595,11.29 C71.0649974,11.7700024 70.8,12.3999961 70.8,13.18 C70.8,13.9600039 71.0699973,14.5949976 71.61,15.085 C72.1500027,15.5750025 72.819996,15.82 73.62,15.82 Z M94.35,16.54 L93.06,16.54 L93.06,22 L86.28,22 L86.28,5.59 L93.06,5.59 L93.06,11.35 L94.53,11.35 L98.13,5.59 L105.27,5.59 L99.99,13.45 L105.6,22 L97.62,22 L94.35,16.54 Z M124.41,5.59 L124.41,22 L117.96,22 L117.96,20.44 C117.359997,21.0600031 116.660004,21.5249985 115.86,21.835 C115.059996,22.1450016 114.210005,22.3 113.31,22.3 C111.22999,22.3 109.560006,21.6650064 108.3,20.395 C107.039994,19.1249937 106.41,17.2100128 106.41,14.65 L106.41,5.59 L113.19,5.59 L113.19,13.48 C113.19,14.6000056 113.369998,15.3999976 113.73,15.88 C114.090002,16.3600024 114.619997,16.6 115.32,16.6 C115.980003,16.6 116.529998,16.3350027 116.97,15.805 C117.41,15.2749974 117.63,14.4400057 117.63,13.3 L117.63,5.59 L124.41,5.59 Z" id="Скидки" fill="#62B037" fill-rule="nonzero"></path>
            </g>
        </g>
    </g>
</svg>