<?xml version="1.0" encoding="utf-8"?>
<!-- Generator: Adobe Illustrator 24.1.0, SVG Export Plug-In . SVG Version: 6.00 Build 0)  -->
<svg version="1.1" id="Layer_1" xmlns="http://www.w3.org/2000/svg" xmlns:xlink="http://www.w3.org/1999/xlink" x="0px" y="0px"
	 viewBox="0 0 25 25" style="enable-background:new 0 0 25 25;" xml:space="preserve">
<style type="text/css">
	.st0{fill:#FFFFFF;}
</style>
<g>
	<path class="st0" d="M22,20.4l-2.3,2.3c-0.3,0.3-0.7,0.5-1.1,0.5s-0.8-0.2-1.1-0.5l-4.9-4.9l-4.9,4.9C7.5,23,7,23.2,6.6,23.2
		S5.8,23,5.5,22.7l-2.3-2.3c-0.3-0.3-0.5-0.7-0.5-1.1s0.2-0.8,0.5-1.1l4.9-4.9L3.2,8.4C2.9,8.1,2.8,7.7,2.8,7.3s0.2-0.8,0.5-1.1
		l2.3-2.3c0.3-0.3,0.7-0.5,1.1-0.5s0.8,0.2,1.1,0.5l4.9,4.9l4.9-4.9c0.3-0.3,0.7-0.5,1.1-0.5s0.8,0.2,1.1,0.5L22,6.2
		c0.3,0.3,0.5,0.7,0.5,1.1S22.3,8.1,22,8.4l-4.9,4.9l4.9,4.9c0.3,0.3,0.5,0.7,0.5,1.1S22.3,20.1,22,20.4z"/>
</g>
</svg>
