<?xml version="1.0" encoding="utf-8"?>
<!-- Generator: Adobe Illustrator 24.1.0, SVG Export Plug-In . SVG Version: 6.00 Build 0)  -->
<svg version="1.1" id="Layer_1" xmlns="http://www.w3.org/2000/svg" xmlns:xlink="http://www.w3.org/1999/xlink" x="0px" y="0px"
	 viewBox="0 0 248 62.5" style="enable-background:new 0 0 248 62.5;" xml:space="preserve">
<style type="text/css">
	.st0{fill:#FFFFFF;}
</style>
<g>
	<path class="st0" d="M10,44.4V11h6.2v33.4H10z"/>
	<path class="st0" d="M39,44.4V32.1c0-3.6-2-6.3-5.7-6.3c-3.6,0-6,3-6,6.6v12h-5.8V20.8h5.2l0.4,3.2c2.4-2.3,4.8-3.5,7.7-3.5
		c5.5,0,10,4.1,10,11.5v12.4H39z"/>
	<path class="st0" d="M51.7,44.4V26.3h-4.4v-5.1h4.4v-1.6c0-6.3,4.2-9.2,9-9.2c2.1,0,4.2,0.7,6.1,1.9l-2.1,4.3
		c-1.2-0.8-2.4-1.2-3.6-1.2c-2,0-3.5,1.3-3.5,4.2v1.6h6.9v5.1h-6.9v18.1H51.7z"/>
	<path class="st0" d="M90.5,32.7c0,6.8-4.6,12.3-12.3,12.3S66,39.4,66,32.7s4.7-12.3,12.2-12.3C85.7,20.4,90.5,25.9,90.5,32.7z
		 M71.8,32.7c0,3.6,2.1,6.9,6.4,6.9c4.2,0,6.4-3.3,6.4-6.9c0-3.5-2.5-7-6.4-7C74,25.7,71.8,29.1,71.8,32.7z"/>
	<path class="st0" d="M94.5,54.2V20.9h5.4l0.4,3.2c1.8-2.6,5-3.8,7.6-3.8c7.3,0,12.1,5.4,12.1,12.3s-4.3,12.3-11.9,12.3
		c-2.5,0-6.2-0.8-7.8-3.3v12.6C100.3,54.2,94.5,54.2,94.5,54.2z M114.2,32.7c0-3.7-2.5-6.7-6.7-6.7s-6.7,3-6.7,6.7s2.7,6.7,6.7,6.7
		S114.2,36.3,114.2,32.7z"/>
	<path class="st0" d="M130.1,11.1v33.3h-5.8V11.1H130.1z"/>
	<path class="st0" d="M140.1,34.7c0.4,2.9,2.9,5,7,5c2.1,0,5-0.8,6.3-2.2l3.7,3.7c-2.5,2.6-6.5,3.8-10.1,3.8
		c-8.1,0-12.9-5-12.9-12.5c0-7.2,4.9-12.3,12.5-12.3c7.9,0,12.8,4.9,11.9,14.5H140.1z M152.9,29.9c-0.4-3.1-2.8-4.6-6.1-4.6
		c-3.1,0-5.7,1.5-6.6,4.6H152.9z"/>
	<path class="st0" d="M181.7,20.9h5.6v23.5h-5.5l-0.3-3.4c-1.3,2.8-5,4.1-7.6,4.1c-7,0-12.1-4.2-12.1-12.5c0-8.1,5.4-12.4,12.3-12.3
		c3.1,0,6.2,1.5,7.5,3.8L181.7,20.9z M167.5,32.6c0,4.5,3.1,7.2,7,7.2c9.2,0,9.2-14.3,0-14.3C170.6,25.5,167.5,28.1,167.5,32.6z"/>
	<path class="st0" d="M207.5,27.1c-1.7-1.6-3.6-2.1-5.8-2.1c-2.8,0-4.3,0.9-4.3,2.3c0,1.5,1.4,2.4,4.4,2.6
		c4.4,0.3,10.1,1.3,10.1,7.5c0,4.1-3.4,7.7-10.1,7.7c-3.7,0-7.4-0.6-10.9-4.2l2.9-4.1c1.7,1.9,5.5,3.2,8.1,3.3
		c2.2,0,4.2-1.1,4.2-2.8c0-1.6-1.3-2.3-4.7-2.5c-4.4-0.3-9.7-2-9.7-7.3c0-5.4,5.6-7.3,9.9-7.3c3.7,0,6.4,0.7,9.2,3.1L207.5,27.1z"/>
	<path class="st0" d="M220.5,34.7c0.4,2.9,2.9,5,7,5c2.1,0,5-0.8,6.3-2.2l3.7,3.7C235,43.8,231,45,227.4,45c-8.1,0-12.9-5-12.9-12.5
		c0-7.2,4.9-12.3,12.5-12.3c7.9,0,12.8,4.9,11.9,14.5H220.5z M233.3,29.9c-0.4-3.1-2.8-4.6-6.1-4.6c-3.1,0-5.7,1.5-6.6,4.6H233.3z"
		/>
</g>
</svg>
