<?xml version="1.0" encoding="utf-8"?>
<!-- Generator: Adobe Illustrator 24.1.0, SVG Export Plug-In . SVG Version: 6.00 Build 0)  -->
<svg version="1.1" id="Layer_1" xmlns="http://www.w3.org/2000/svg" xmlns:xlink="http://www.w3.org/1999/xlink" x="0px" y="0px"
	 viewBox="0 0 25 25" style="enable-background:new 0 0 25 25;" xml:space="preserve">
<style type="text/css">
	.st0{fill:#FFFFFF;}
</style>
<g>
	<path class="st0" d="M22,22.5c-0.4,0-0.8-0.2-1.1-0.5l-4.1-4.1c-1.4,1-3.1,1.5-4.8,1.5c-4.7,0-8.5-3.8-8.5-8.5
		c0-4.7,3.8-8.5,8.5-8.5s8.5,3.8,8.5,8.5c0,1.7-0.5,3.4-1.5,4.8l4.1,4.1c0.3,0.3,0.4,0.7,0.4,1.1C23.6,21.8,22.9,22.5,22,22.5z
		 M12,5.5c-3,0-5.4,2.4-5.4,5.4S9,16.3,12,16.3c3,0,5.4-2.4,5.4-5.4S15,5.5,12,5.5z"/>
</g>
</svg>
